<?xml version="1.0" encoding="UTF-8" standalone="no"?>
<svg
   xmlns:dc="http://purl.org/dc/elements/1.1/"
   xmlns:cc="http://creativecommons.org/ns#"
   xmlns:rdf="http://www.w3.org/1999/02/22-rdf-syntax-ns#"
   xmlns:svg="http://www.w3.org/2000/svg"
   xmlns="http://www.w3.org/2000/svg"
   xmlns:sodipodi="http://sodipodi.sourceforge.net/DTD/sodipodi-0.dtd"
   xmlns:inkscape="http://www.inkscape.org/namespaces/inkscape"
   id="ARX_SMART_MINDS"
   version="1.1"
   viewBox="0 0 140.00001 79.999999"
   sodipodi:docname="brand-logo-100.svg"
   width="140"
   height="80"
   inkscape:version="1.0.2-2 (e86c870879, 2021-01-15)">
  <metadata
     id="metadata9">
    <rdf:RDF>
      <cc:Work
         rdf:about="">
        <dc:format>image/svg+xml</dc:format>
        <dc:type
           rdf:resource="http://purl.org/dc/dcmitype/StillImage" />
        <dc:title />
      </cc:Work>
    </rdf:RDF>
  </metadata>
  <defs
     id="defs7">
    <style
       id="style81">
      .cls-1 {
        fill: #fff;
      }

      .cls-1, .cls-2, .cls-3 {
        stroke-width: 0px;
      }

      .cls-2 {
        fill: #ec6726;
      }

      .cls-3 {
        fill: #002643;
      }
    </style>
  </defs>
  <sodipodi:namedview
     pagecolor="#ffffff"
     bordercolor="#666666"
     borderopacity="1"
     objecttolerance="10"
     gridtolerance="10"
     guidetolerance="10"
     inkscape:pageopacity="0"
     inkscape:pageshadow="2"
     inkscape:window-width="3840"
     inkscape:window-height="2071"
     id="namedview5"
     showgrid="false"
     inkscape:zoom="19.868446"
     inkscape:cx="36.889284"
     inkscape:cy="52.443068"
     inkscape:window-x="-9"
     inkscape:window-y="-9"
     inkscape:window-maximized="1"
     inkscape:current-layer="g133"
     inkscape:document-rotation="0" />
  <!-- Generator: Adobe Illustrator 29.8.2, SVG Export Plug-In . SVG Version: 2.1.1 Build 3)  -->
  <g
     id="g133"
     transform="matrix(0.07223327,0,0,0.07223327,46.964811,22.083982)">
    <path
       id="rect85"
       d="M 46.964844 22.083984 L 46.964844 57.916016 L 93.035156 57.916016 L 93.035156 22.083984 L 46.964844 22.083984 z M 70 24.642578 C 70.98165 24.642578 71.963232 24.906799 72.748047 25.435547 C 72.799332 25.469497 72.85178 25.504401 72.902344 25.539062 L 83.066406 32.316406 L 62.421875 32.316406 C 61.851954 32.316406 61.294885 32.486353 60.820312 32.802734 L 57.708984 34.878906 L 85.357422 34.878906 L 85.357422 34.880859 C 88.184632 34.880859 90.476562 37.173298 90.476562 40.001953 C 90.478007 41.260979 89.99964 42.506413 89.152344 43.4375 C 88.87569 43.74088 88.563383 44.012272 88.224609 44.244141 L 72.904297 54.460938 C 72.853734 54.495599 72.802008 54.529781 72.75 54.564453 C 71.180371 55.621948 68.823535 55.621948 67.253906 54.564453 C 67.202621 54.529781 67.14822 54.496322 67.097656 54.460938 L 56.933594 47.683594 L 77.578125 47.683594 C 78.148768 47.683594 78.705115 47.513647 79.179688 47.197266 L 82.291016 45.121094 L 54.642578 45.121094 C 50.203844 45.103758 47.889286 39.856551 50.851562 36.560547 C 51.127494 36.257889 51.437339 35.988959 51.775391 35.757812 L 67.095703 25.539062 C 67.146989 25.504401 67.199945 25.470219 67.251953 25.435547 C 68.036768 24.906799 69.01835 24.642578 70 24.642578 z M 54.335938 36.816406 C 53.92782 36.816406 53.647376 36.889136 53.414062 37.009766 C 53.180037 37.131118 53.009463 37.303715 52.900391 37.53125 C 52.790596 37.758785 52.736328 38.041577 52.736328 38.378906 C 52.736328 38.733572 52.763981 39.015347 52.820312 39.222656 C 52.876654 39.429966 52.977563 39.596224 53.119141 39.755859 C 53.260718 39.915495 53.467915 40.076773 53.740234 40.242188 L 54.414062 40.642578 C 54.573698 40.724924 54.671318 40.836777 54.736328 40.966797 C 54.801338 41.096817 54.833984 41.298725 54.833984 41.570312 C 54.833984 41.800737 54.798368 41.964263 54.730469 42.0625 C 54.662569 42.160015 54.534954 42.208984 54.345703 42.208984 C 54.156452 42.208984 54.026884 42.144709 53.958984 42.017578 C 53.907699 41.921508 53.862022 41.769596 53.841797 41.564453 C 53.838908 41.542061 53.83665 41.520439 53.835938 41.498047 C 53.828714 41.369472 53.808674 41.178767 53.814453 41.042969 L 53.814453 41.035156 L 52.695312 41.189453 C 52.695312 41.650301 52.747557 42.022764 52.851562 42.306641 C 52.954856 42.590517 53.126142 42.806786 53.365234 42.957031 C 53.605049 43.107999 53.921799 43.183594 54.318359 43.183594 C 54.71492 43.183594 55.002454 43.129164 55.248047 43.007812 C 55.49364 42.886471 55.674506 42.705594 55.792969 42.462891 C 55.911431 42.220909 55.970703 41.908431 55.970703 41.523438 C 55.970703 41.199243 55.94057 40.948013 55.873047 40.732422 L 55.873047 40.730469 C 55.805167 40.515182 55.705664 40.318753 55.550781 40.152344 C 55.402703 39.993431 55.173884 39.817568 54.863281 39.621094 L 54.259766 39.275391 C 54.111687 39.198823 54.006791 39.078383 53.951172 38.957031 C 53.89483 38.835679 53.867188 38.664099 53.867188 38.439453 C 53.867188 38.291375 53.878507 38.171814 53.902344 38.080078 C 53.926181 37.988342 53.971173 37.917741 54.039062 37.867188 C 54.106962 37.817347 54.205918 37.791016 54.335938 37.791016 C 54.513621 37.791016 54.637473 37.843972 54.708984 37.947266 C 54.773272 38.040447 54.829009 38.20796 54.839844 38.449219 C 54.847067 38.574182 54.85793 38.746933 54.859375 38.876953 L 55.951172 38.724609 C 55.951172 38.275318 55.899232 37.915914 55.798828 37.646484 C 55.698424 37.377777 55.532864 37.170874 55.298828 37.029297 C 55.065515 36.88772 54.744045 36.816406 54.335938 36.816406 z M 77.832031 36.816406 C 77.423913 36.816406 77.145423 36.889136 76.912109 37.009766 C 76.678796 37.131118 76.505557 37.303715 76.396484 37.53125 C 76.28669 37.758785 76.232422 38.041577 76.232422 38.378906 C 76.232422 38.733572 76.262017 39.015347 76.318359 39.222656 C 76.374701 39.429966 76.473657 39.596224 76.615234 39.755859 C 76.756812 39.915495 76.964009 40.076773 77.236328 40.242188 L 77.910156 40.642578 C 78.069792 40.724924 78.167412 40.836777 78.232422 40.966797 C 78.297432 41.096817 78.330078 41.298718 78.330078 41.570312 C 78.330078 41.800737 78.296415 41.964263 78.228516 42.0625 C 78.160616 42.160015 78.031048 42.208984 77.841797 42.208984 C 77.652546 42.208984 77.524931 42.144709 77.457031 42.017578 C 77.405746 41.921508 77.358116 41.769596 77.337891 41.564453 C 77.335001 41.542061 77.332754 41.520439 77.332031 41.498047 C 77.324808 41.369472 77.304768 41.178767 77.310547 41.042969 L 77.310547 41.035156 L 76.193359 41.189453 C 76.193359 41.650301 76.24364 42.022764 76.347656 42.306641 C 76.45095 42.590517 76.622236 42.806786 76.861328 42.957031 C 77.101143 43.107999 77.419846 43.183594 77.816406 43.183594 C 78.212967 43.183594 78.498548 43.129164 78.744141 43.007812 C 78.989734 42.886464 79.170603 42.705594 79.289062 42.462891 C 79.407525 42.220909 79.466797 41.908438 79.466797 41.523438 C 79.466797 41.199243 79.436664 40.948013 79.369141 40.732422 L 79.369141 40.730469 C 79.301261 40.515185 79.203709 40.318751 79.048828 40.152344 C 78.90075 39.993431 78.669978 39.817568 78.359375 39.621094 L 77.757812 39.275391 C 77.609737 39.198823 77.502885 39.078383 77.447266 38.957031 C 77.390924 38.835679 77.363281 38.664099 77.363281 38.439453 C 77.363281 38.291375 77.374601 38.171814 77.398438 38.080078 C 77.422271 37.988342 77.467257 37.917748 77.535156 37.867188 C 77.603056 37.817347 77.702011 37.791016 77.832031 37.791016 C 78.009725 37.791016 78.133567 37.843972 78.205078 37.947266 C 78.269366 38.040447 78.325103 38.20796 78.335938 38.449219 C 78.343158 38.574182 78.355977 38.746933 78.357422 38.876953 L 79.447266 38.724609 C 79.447266 38.275318 79.397279 37.915914 79.296875 37.646484 C 79.196471 37.377777 79.028958 37.170874 78.794922 37.029297 C 78.561608 36.88772 78.240149 36.816406 77.832031 36.816406 z M 56.28125 36.894531 L 57.078125 43.105469 L 58.523438 43.105469 L 59.083984 39.371094 L 59.119141 38.945312 L 59.136719 38.945312 L 59.171875 39.371094 L 59.740234 43.105469 L 61.105469 43.105469 L 61.966797 36.894531 L 60.822266 36.894531 L 60.386719 41.259766 L 60.351562 41.615234 L 60.333984 41.615234 L 60.28125 41.207031 L 59.677734 36.894531 L 58.568359 36.894531 L 57.974609 41.214844 L 57.921875 41.615234 L 57.894531 41.615234 L 57.869141 41.259766 L 57.416016 36.894531 L 56.28125 36.894531 z M 62.429688 36.894531 L 62.429688 43.103516 L 63.566406 43.103516 L 63.566406 36.894531 L 62.429688 36.894531 z M 64.351562 36.894531 L 64.351562 43.105469 L 66.775391 43.105469 L 66.775391 42.101562 L 65.421875 42.101562 L 65.421875 40.292969 L 66.775391 40.292969 L 66.775391 39.298828 L 65.421875 39.298828 L 65.421875 37.898438 L 66.771484 37.898438 L 66.771484 36.894531 L 64.351562 36.894531 z M 67.255859 36.894531 L 67.255859 37.896484 L 68.101562 37.896484 L 68.101562 43.105469 L 69.15625 43.105469 L 69.15625 37.896484 L 70 37.896484 L 70 36.894531 L 67.255859 36.894531 z M 70.484375 36.894531 L 70.484375 43.105469 L 73.03125 43.105469 L 73.03125 42.101562 L 71.554688 42.101562 L 71.554688 40.292969 L 72.902344 40.292969 L 72.902344 39.298828 L 71.554688 39.298828 L 71.554688 37.898438 L 73.027344 37.898438 L 73.027344 36.894531 L 70.484375 36.894531 z M 73.685547 36.894531 L 73.685547 43.105469 L 75.832031 43.105469 L 75.832031 42.101562 L 74.820312 42.101562 L 74.820312 36.894531 L 73.685547 36.894531 z M 80.052734 36.894531 L 80.052734 43.105469 L 81.189453 43.105469 L 81.189453 40.90625 L 81.611328 40.333984 L 82.6875 43.105469 L 83.867188 43.105469 L 82.316406 39.314453 L 83.697266 37.121094 L 84.945312 40.886719 L 84.927734 43.105469 L 86.072266 43.105469 L 86.054688 40.886719 L 87.375 36.894531 L 86.169922 36.894531 L 85.513672 39.441406 L 84.839844 36.894531 L 83.839844 36.894531 L 83.623047 36.894531 L 82.607422 36.894531 L 81.189453 39.273438 L 81.189453 36.894531 L 80.052734 36.894531 z "
       transform="matrix(13.844036,0,0,13.844036,-650.18254,-305.73144)" />
    <g
       id="g111">
      <g
         id="g109" />
    </g>
  </g>
  <style
     type="text/css"
     id="style2448">
	.st0{fill:#00A896;}
	.st1{fill:#29327B;}
</style>
  <style
     type="text/css"
     id="style671">
	.st0{fill:none;}
	.st1{fill:#0F05A0;}
</style>
</svg>
